<?xml version="1.0" encoding="UTF-8"?>
<svg id="Layer_1" xmlns="http://www.w3.org/2000/svg" version="1.1" viewBox="0 0 32 32">
  <!-- Generator: Adobe Illustrator 29.8.3, SVG Export Plug-In . SVG Version: 2.1.1 Build 3)  -->
  <defs>
    <style>
      .st0 {
        fill: #fff;
      }

      .st1 {
        fill: #666;
      }
    </style>
  </defs>
  <path class="st0" d="M32,16c0,8.83-7.17,16-16,16S0,24.83,0,16,7.17,0,16,0s16,7.17,16,16Z"/>
  <path class="st1" d="M7.9,16.54l.06-.1,4.16-6.5c.06-.1.19-.1.26.03.7,1.57,1.28,3.49,1.02,4.7-.13.51-.45,1.18-.83,1.79-.03.1-.1.19-.16.26-.03.03-.06.06-.13.06h-4.29c-.1-.03-.16-.16-.1-.26Z"/>
  <path class="st1" d="M26.43,17.76v1.02c0,.06-.03.1-.1.13-.32.13-1.44.64-1.89,1.28-1.18,1.63-2.08,3.97-4.06,3.97h-8.35c-2.94,0-5.34-2.4-5.34-5.38v-.1c0-.06.06-.13.13-.13h4.7c.1,0,.16.1.16.16-.03.29.03.61.16.9.29.58.86.9,1.47.9h2.3v-1.79h-2.27c-.13,0-.19-.13-.13-.22.03-.03.06-.06.1-.13.22-.32.51-.77.83-1.31.22-.35.42-.77.58-1.15.03-.06.06-.13.1-.22.03-.13.1-.26.13-.35.03-.1.06-.19.1-.29.06-.32.1-.67.1-1.06,0-.13,0-.29-.03-.45,0-.16-.03-.32-.03-.48,0-.13-.03-.29-.06-.42-.03-.22-.06-.42-.13-.64l-.03-.06c-.03-.13-.06-.29-.13-.42-.13-.45-.29-.9-.45-1.28-.06-.16-.13-.32-.19-.48-.1-.22-.19-.45-.29-.64-.03-.1-.1-.16-.13-.26s-.1-.19-.13-.29l-.1-.19-.29-.51c-.03-.06.03-.16.1-.13l1.76.48h0l.22.06.26.06.1.03v-1.06c0-.51.42-.93.9-.93.26,0,.48.1.64.26s.26.38.26.64v1.54l.19.06s.03,0,.03.03c.03.03.1.1.19.16.06.06.13.13.22.19.16.13.38.32.61.51.06.06.13.1.16.16.29.26.61.58.93.93.1.1.16.19.26.29.1.1.16.22.26.32.1.13.22.29.32.42.03.06.1.13.13.22.13.19.22.38.35.58.03.1.1.19.13.29.13.26.22.51.26.8.03.06.03.13.03.16h0c.03.06.03.16.03.26.03.29,0,.54-.03.83-.03.13-.06.22-.1.35-.03.1-.06.22-.13.35-.1.22-.22.45-.35.67-.03.06-.1.16-.16.26s-.13.16-.16.26c-.06.1-.16.19-.22.29-.06.1-.13.19-.22.29-.1.13-.22.26-.32.38-.06.06-.13.16-.22.22-.06.06-.13.16-.22.22-.1.1-.19.19-.29.26l-.19.16s-.06.03-.1.03h-1.41v1.79h1.76c.38,0,.77-.13,1.06-.38.1-.1.54-.48,1.09-1.06t.06-.03l4.86-1.41c.19-.1.26-.03.26.06Z"/>
</svg>